<svg width="103" height="7" viewBox="0 0 103 7" fill="none" xmlns="http://www.w3.org/2000/svg">
<path fill-rule="evenodd" clip-rule="evenodd" d="M8.64362 7.46203C8.91605 7.46203 8.90676 7.29663 8.89668 7.11701C8.89159 7.02644 8.8863 6.93226 8.91683 6.85384C9.23348 6.76511 9.24075 6.90076 9.24929 7.05982C9.25425 7.15237 9.25964 7.25285 9.32664 7.32168C9.48231 7.27598 9.61625 7.16332 9.73909 7.06002C9.86776 6.9518 9.98424 6.85384 10.1007 6.85384C10.1007 6.86801 10.1049 6.88217 10.1094 6.89763C10.1199 6.93324 10.1325 6.97574 10.1007 7.04098C10.2548 6.8827 10.4833 6.86649 10.7194 6.84974C10.9718 6.83183 11.233 6.8133 11.4212 6.61992C11.4355 6.63465 11.4454 6.64474 11.4521 6.65312L11.4667 6.71349C11.4667 6.68144 11.4667 6.67134 11.4521 6.65312C11.4119 6.48661 11.3757 6.32412 11.3757 6.19887C11.4425 6.19887 11.5032 6.16106 11.5578 6.12707C11.6519 6.06845 11.7278 6.02119 11.7855 6.19887C11.6944 6.19887 11.6489 6.29244 11.6033 6.38601L11.7855 6.24565C11.8848 6.4498 11.7945 6.473 11.6993 6.49746C11.6199 6.51785 11.5371 6.53911 11.5578 6.66671C11.6687 6.624 11.7837 6.56397 11.8991 6.50374C12.163 6.36604 12.4289 6.22734 12.6506 6.29244C12.6955 6.47678 12.5305 6.51358 12.4004 6.54258C12.2664 6.57247 12.1695 6.59409 12.3774 6.76027L11.9221 6.61992C12.1001 6.89426 12.0389 6.88931 11.9669 6.88348C11.8917 6.87739 11.8046 6.87034 11.9676 7.18133C12.2636 7.22811 12.423 7.16963 12.5823 7.11115C12.7417 7.05267 12.9011 6.99419 13.197 7.04098C13.269 6.94235 13.2525 6.86971 13.2341 6.78882C13.2175 6.71623 13.1995 6.63699 13.2426 6.52636C13.6652 6.30926 13.8336 6.55234 13.9787 6.76183C14.115 6.95863 14.2308 7.12578 14.5175 6.85384C14.5471 6.80329 14.5723 6.7418 14.5984 6.67837C14.693 6.4483 14.7981 6.19253 15.155 6.33922L15.0184 6.76027C15.267 6.76027 15.3459 6.63438 15.4182 6.51918C15.5047 6.38118 15.5816 6.25851 15.9291 6.38601C15.8728 6.50163 15.7296 6.54581 15.6392 6.57373C15.5832 6.591 15.5474 6.60205 15.5648 6.61992C15.8079 6.78641 15.8587 6.67313 15.9169 6.54361C15.9567 6.45476 16.0001 6.35826 16.1112 6.33922L16.2023 6.71349C16.5206 6.66317 16.8521 6.54521 17.1897 6.42508C17.4799 6.32182 17.7745 6.21696 18.0692 6.15209L18.0575 6.17558C18.0107 6.26798 17.9473 6.39355 18.1147 6.47957C18.9343 6.19887 19.8906 6.29244 20.7557 6.38601L21.0289 6.01174C21.12 6.01174 21.1655 6.15209 21.12 6.19887C21.2987 6.2251 21.277 6.16309 21.2475 6.07881C21.2244 6.01277 21.1966 5.93305 21.2566 5.87139C21.4387 5.8246 21.5298 6.01174 21.4387 6.1053C21.9396 5.73103 22.7507 5.71367 23.3427 5.9008L23.5333 5.91817C23.7512 5.94056 23.7181 6.61405 23.8164 6.46185C23.9235 6.29605 24.0247 6.13927 24.2621 6.23684L24.1711 6.28362C24.5666 6.26515 24.9622 6.17373 25.3493 6.08426C25.9426 5.94714 26.5162 5.81458 27.0397 5.95614C27.0608 5.73925 27.2777 5.7134 27.4951 5.68748C27.7468 5.65749 27.9992 5.6274 27.9504 5.30117C28.1884 5.35356 28.3185 5.41248 28.4307 5.46331C28.6192 5.54864 28.7573 5.61119 29.2709 5.58187C29.391 5.55718 29.4478 5.42827 29.508 5.29139C29.562 5.16888 29.6187 5.03997 29.7262 4.97368L29.8173 5.30117L30.0905 4.88011L30.3637 5.2076L30.5914 5.06725C30.5003 5.06725 30.3637 4.97368 30.3637 4.88011C30.6824 4.64619 31.3199 4.83333 31.3655 5.02046L32.1395 4.50584C32.1395 4.57817 32.1033 4.63808 32.0556 4.69196C32.0201 4.71061 31.9739 4.75363 31.9119 4.83333C31.9297 4.81498 31.9493 4.79662 31.9693 4.77791C31.9987 4.7504 32.029 4.72213 32.0556 4.69196C32.1276 4.6542 32.1557 4.71653 32.183 4.77711C32.2214 4.86219 32.2583 4.94381 32.4127 4.73976C32.352 4.70857 32.3723 4.6358 32.3925 4.56302C32.4026 4.52665 32.4127 4.49024 32.4127 4.45906C32.6859 4.59941 33.1413 4.45906 33.46 4.31871V4.55263C33.7687 4.50732 34.0881 4.40715 34.413 4.30526C34.759 4.19674 35.1113 4.08626 35.4635 4.03801C35.1903 3.99122 35.1903 3.57017 35.3725 3.52339L35.5091 3.85087C35.5502 3.74525 35.5078 3.71594 35.4698 3.68971C35.4237 3.65786 35.3842 3.63056 35.5091 3.4766C35.7823 3.4766 35.7367 3.85087 35.6001 3.99122L35.9189 3.80409C35.9462 3.86023 35.9243 3.91637 35.9025 3.97251C35.8879 4.00994 35.8733 4.04736 35.8733 4.08479C35.9124 3.98435 36.0271 4.02192 36.156 4.06416C36.3274 4.1203 36.5239 4.1847 36.6019 3.94444L36.6474 4.03801C37.003 3.99234 37.261 3.93552 37.4955 3.88387C37.7414 3.82972 37.9614 3.78125 38.2411 3.75731C38.2411 3.59573 38.3166 3.54266 38.4153 3.47318C38.4881 3.42195 38.5736 3.36181 38.6509 3.24269C38.8262 3.2607 39.0082 3.30644 39.1944 3.35322C39.4919 3.42797 39.8 3.50538 40.108 3.4766C40.3199 3.39499 40.3161 3.32919 40.3117 3.25161C40.3085 3.19579 40.305 3.13386 40.3812 3.05555C40.4028 3.18867 40.5268 3.24814 40.6221 3.29383C40.7277 3.34449 40.7981 3.37822 40.6544 3.4766C41.2604 3.43213 41.4549 3.38766 42.1768 3.22261L42.2937 3.1959C42.2742 3.17593 42.2548 3.15808 42.2366 3.14146C42.1699 3.08025 42.1213 3.03556 42.1571 2.96198C42.2937 2.9152 42.4758 3.05555 42.4758 3.1959L42.4303 3.24269C42.8749 3.03713 43.3846 3.22184 43.8746 3.39942C44.3884 3.58559 44.8805 3.76393 45.2534 3.4766L45.2078 3.52339L45.9819 3.24269C46.158 3.26531 46.1106 3.3098 46.0456 3.37088C45.976 3.43612 45.8863 3.5203 46.0275 3.61695C46.4733 3.3879 46.8114 3.43575 47.137 3.48182C47.4099 3.52044 47.674 3.55782 47.9854 3.42982C48.2599 3.8656 48.7941 3.82383 49.3333 3.78165C49.7782 3.74686 50.2266 3.7118 50.5353 3.94444L50.4898 3.75731C50.6077 3.63612 50.6684 3.71113 50.7336 3.79175C50.7691 3.83563 50.8059 3.88117 50.8541 3.89766C50.8541 3.83376 50.8163 3.78925 50.7838 3.7509C50.7449 3.70501 50.7134 3.66792 50.763 3.61695C51.8258 3.48849 52.9315 3.73482 54.0211 3.97758C54.5188 4.08845 55.0132 4.19859 55.4986 4.27193C55.763 4.31372 55.8639 4.13146 55.9595 3.95868C56.0779 3.74468 56.1883 3.54524 56.5914 3.80409L56.3637 4.13157C56.9885 3.93404 57.6134 3.98411 58.2382 4.03418C58.7973 4.07898 59.3563 4.12378 59.9154 3.99122C59.8806 4.02696 59.8591 4.0627 59.8407 4.09323C59.811 4.14262 59.7895 4.17836 59.7332 4.17836C59.9609 4.45906 60.5984 4.27193 60.6439 4.03801C60.75 4.06526 60.748 4.12427 60.7458 4.18729C60.7442 4.23244 60.7425 4.27965 60.7805 4.31871C60.8908 4.40936 61.0438 4.34631 61.1827 4.28911C61.3304 4.22824 61.4621 4.17399 61.5091 4.31871C61.5091 4.34558 61.479 4.37246 61.4448 4.39046C61.4172 4.39502 61.3926 4.40193 61.3725 4.41228C61.3918 4.41228 61.4195 4.4038 61.4448 4.39046C61.5054 4.38046 61.5806 4.38181 61.6555 4.38314C61.8553 4.3867 62.0528 4.39022 61.9644 4.17836C62.1707 4.27254 62.3769 4.26007 62.5716 4.2483C62.7637 4.23669 62.9445 4.22576 63.1028 4.31871C63.2307 4.1873 63.3885 4.23019 63.5342 4.26979C63.6998 4.31478 63.8497 4.35552 63.9224 4.13157C63.8313 4.59941 64.6054 4.59941 64.8786 4.41228C64.8351 4.47939 64.8748 4.52511 64.9182 4.57501C64.9655 4.62946 65.0172 4.68889 64.9697 4.78655C65.2429 4.83333 65.5616 4.78655 65.5161 4.55263C65.7372 4.87068 66.0227 4.82468 66.2736 4.78427C66.5394 4.74146 66.7663 4.70491 66.8366 5.11403C67.7472 5.06725 68.6576 3.95326 69.5228 4.04682C69.4558 4.27636 69.1901 5.39639 68.9721 5.3561C68.7458 5.31428 68.5222 5.27295 68.4758 5.53508C68.764 5.53508 69.0637 4.3396 69.3041 4.30679C69.7475 4.24631 70.1433 4.19232 70.6156 4.37431C70.7637 4.45039 70.5806 4.52648 70.4581 4.57741C70.4299 4.58911 70.405 4.59949 70.3879 4.60823C70.7429 4.60823 71.0808 4.67844 71.409 4.74664C71.8322 4.83456 72.2393 4.91914 72.6461 4.84561C72.6484 4.85344 72.6514 4.86133 72.6549 4.86927C72.629 4.90546 72.5557 4.93571 72.4825 4.93571C72.5211 4.93571 72.5633 4.94691 72.604 4.9577C72.7075 4.98513 72.8012 5.01001 72.8012 4.84215L72.6646 4.88893L72.6604 4.88101C72.6584 4.87708 72.6566 4.87317 72.6549 4.86927C72.6612 4.86047 72.6646 4.85131 72.6646 4.84215L72.6461 4.84561C72.5904 4.66075 72.844 4.50657 73.0621 4.37398C73.1754 4.30508 73.2792 4.24202 73.3249 4.1835C73.2153 4.41023 73.3444 4.48483 73.4753 4.56047C73.6353 4.65299 73.798 4.74704 73.5298 5.12285C73.5386 5.1183 73.5479 5.11375 73.5575 5.10908C73.6461 5.06565 73.7575 5.01109 73.7575 4.84215C73.8941 4.88893 73.9396 4.9825 73.7575 5.12285C73.9961 5.10056 74.09 5.03581 74.1722 4.97917C74.2625 4.9169 74.3386 4.86443 74.5771 4.88893C74.5771 4.95742 74.5283 5.00085 74.4664 5.05591C74.4438 5.07603 74.4193 5.09783 74.3949 5.12285L74.4513 5.08391C74.7005 4.91127 74.9212 4.75834 75.2601 4.88893C75.2421 4.90738 75.2383 4.93312 75.2347 4.95751C75.2292 4.99497 75.2242 5.02928 75.169 5.02928C75.4622 5.04936 75.7217 4.97465 75.9766 4.9013C76.3155 4.80375 76.646 4.70862 77.0359 4.84215C76.9124 5.07053 76.9899 5.10622 77.0866 5.15078C77.1683 5.18837 77.2636 5.23229 77.2636 5.40355L77.6734 5.30998L77.5368 5.12285C77.6762 5.14332 77.8157 5.1011 77.9551 5.05889C78.1344 5.00461 78.3137 4.95033 78.493 5.02928L78.2198 5.16963L78.8573 5.12285L78.493 4.93571C78.6674 4.84613 78.6748 4.72437 78.6801 4.63718C78.6859 4.54224 78.6892 4.48828 78.9028 4.56144C78.872 4.57728 78.8986 4.5824 78.9543 4.59312C79.0631 4.61408 79.2832 4.65646 79.4037 4.84215C79.5858 4.70179 79.768 4.60823 79.9956 4.70179C80.026 4.79536 79.9956 4.95131 79.972 5.0726C79.9602 5.13324 79.9501 5.18523 79.9501 5.21641C80.0382 5.05794 80.2224 5.04189 80.4147 5.02511C80.5996 5.00899 80.7922 4.9922 80.9144 4.84755C80.862 4.9462 80.8682 5.08369 80.9063 5.12285L81.0429 4.84215C81.1795 4.93571 81.2251 4.9825 81.1795 5.12285C81.4011 5.14561 81.3747 5.02436 81.3521 4.92082C81.3283 4.81158 81.3088 4.72206 81.5893 4.84215C81.5666 4.84215 81.5552 4.85384 81.5381 4.87138C81.521 4.88893 81.4983 4.91232 81.4527 4.93571C81.7279 5.00639 82.003 4.97029 82.2724 4.93496C82.5379 4.90013 82.7978 4.86604 83.0464 4.93571C83.1186 5.15826 82.9873 5.17169 82.8743 5.18325C82.7912 5.19175 82.718 5.19924 82.7431 5.28829L82.5432 5.35675L82.7253 5.54388L82.7863 5.35588C83.0738 5.3357 83.3752 5.25828 83.6766 5.18086C84.1356 5.06296 84.5946 4.94507 85.0044 5.02928L84.8678 4.9825C84.9164 4.68278 85.0689 4.78309 85.2558 4.90613C85.416 5.01154 85.6016 5.13363 85.7689 5.03519C85.6843 5.0957 85.6435 5.35342 85.6874 5.2632C86.0291 5.32703 86.3708 5.23846 86.7847 5.13116C86.9776 5.08117 87.1861 5.0271 87.4177 4.9825L87.3266 5.12285C87.5059 5.21494 87.7832 5.22646 88.0298 5.23671C88.1591 5.24209 88.28 5.24711 88.3739 5.2632C88.406 5.2138 88.4493 5.18758 88.488 5.16415C88.5594 5.12101 88.6151 5.0873 88.5561 4.93571C89.0535 5.3738 89.5263 5.24212 89.9873 5.11374C90.4124 4.99533 90.8275 4.87973 91.2426 5.21641C91.1515 5.21641 91.0149 5.35677 91.0604 5.35677L91.789 5.21641C91.7613 5.07418 91.7336 5.05303 91.6855 5.01623C91.6544 4.9925 91.6149 4.96228 91.5613 4.88893C91.6524 4.74858 91.8801 4.65501 92.0622 4.65501C91.7862 4.77652 91.9881 4.96815 92.1359 5.10849C92.1588 5.13026 92.1805 5.15079 92.1988 5.16963C92.1988 5.13649 92.2045 5.10921 92.2099 5.08365C92.2196 5.03705 92.2282 4.99613 92.1988 4.93571C92.3715 5.13538 92.4009 5.02996 92.4375 4.89882C92.478 4.75341 92.5274 4.57639 92.7907 4.74858L92.7452 4.88893C92.8094 4.87245 92.8736 4.83854 92.9397 4.80357C93.0613 4.73931 93.1897 4.67149 93.3371 4.70179C93.3862 4.85296 93.3164 4.88202 93.2415 4.91318C93.1773 4.93988 93.1095 4.96812 93.1095 5.07606C93.2153 5.07606 93.328 4.99879 93.4423 4.92047C93.6229 4.79666 93.8073 4.67021 93.9746 4.84215C93.8917 4.89894 93.792 4.92126 93.7061 4.9405C93.6505 4.95295 93.6006 4.96411 93.5648 4.9825C93.7608 5.21747 93.8397 5.23568 93.9526 5.26178C93.9971 5.27205 94.0469 5.28355 94.1112 5.30998L94.6121 5.45033L94.4755 5.35677C94.6784 4.93978 94.8814 4.94382 95.1079 4.94833C95.288 4.95191 95.4831 4.9558 95.7049 4.74858C95.3916 5.04124 95.4346 5.07759 95.4997 5.1325C95.5386 5.16536 95.5854 5.20488 95.5683 5.30998C95.5821 5.31939 95.5963 5.3288 95.6106 5.3382L95.6391 5.35676C95.7593 5.43473 95.8795 5.51271 95.8415 5.59068C95.9428 5.48663 96.0351 5.51218 96.1344 5.53967C96.2583 5.57399 96.3931 5.61133 96.5701 5.40355C96.5701 5.43725 96.5996 5.44667 96.6353 5.45805C96.6986 5.47827 96.7813 5.50466 96.7522 5.68425C96.9397 5.62922 96.8751 5.57419 96.7994 5.50965C96.7464 5.46444 96.6879 5.41457 96.7067 5.35677C96.9095 5.21087 97.1485 5.28782 97.4116 5.37251C97.739 5.47792 98.1038 5.59534 98.4825 5.30998C98.7761 5.21717 98.9465 5.07832 99.1103 4.94482C99.2768 4.80914 99.4365 4.67897 99.7119 4.60823C99.8941 4.79536 99.5753 4.9825 99.5753 4.9825C99.8485 5.12285 100.076 5.12285 100.349 4.9825C100.304 5.07606 100.349 5.16963 100.44 5.2632C100.535 5.24383 100.574 5.17636 100.611 5.11388C100.663 5.02545 100.709 4.94703 100.896 5.02928C100.85 5.12291 100.759 5.31008 100.668 5.45033C100.805 5.40355 100.941 5.33337 101.078 5.26319C101.215 5.19302 101.351 5.12285 101.488 5.07606C101.555 5.2135 101.425 5.30047 101.315 5.37404C101.276 5.40064 101.239 5.42548 101.215 5.45033C101.28 5.43122 101.35 5.41407 101.423 5.39647C101.706 5.3279 102.017 5.25264 102.125 5.02928L101.978 4.9536C101.97 4.94235 101.958 4.93571 101.943 4.93571L101.978 4.9536C102.018 5.00918 101.973 5.17751 101.898 5.21641C101.655 5.42396 101.556 5.18956 101.505 5.06871C101.499 5.05335 101.493 5.03983 101.488 5.02928L101.67 4.9825C101.556 4.601 101.28 4.73492 100.99 4.87621C100.817 4.96016 100.639 5.04672 100.486 5.02928L100.668 4.60823L100.258 4.9825C100.167 4.88893 100.122 4.60823 100.304 4.56144C100.167 4.44448 100.11 4.47957 100.053 4.51466C99.9965 4.54975 99.9396 4.58484 99.803 4.46788C99.7749 4.43896 99.7815 4.42792 99.7907 4.41266C99.7964 4.40322 99.803 4.39218 99.803 4.37431L99.5298 4.51466C99.545 4.48347 99.545 4.43669 99.545 4.39164C99.545 4.30154 99.545 4.21836 99.6664 4.28074C99.4011 4.13204 99.1996 4.23279 99.0417 4.31175C98.9016 4.38183 98.7958 4.43474 98.7102 4.28074L98.7557 4.23396C98.3885 4.30942 98.3898 4.39841 98.3917 4.52274C98.3933 4.62965 98.3953 4.76268 98.1638 4.93571L97.845 4.14039L97.754 4.46788C97.7042 4.46788 97.6407 4.45388 97.6009 4.41824L97.6161 4.42107C97.5984 4.40286 97.5806 4.38109 97.5653 4.35785C97.5607 4.33606 97.5622 4.3105 97.5718 4.28074C97.5595 4.29125 97.5485 4.3011 97.5385 4.31034C97.4995 4.22598 97.5076 4.14037 97.6616 4.14037C97.3532 3.95929 97.3645 4.00819 97.3862 4.10163C97.4094 4.20131 97.4443 4.35165 97.1152 4.32751L97.4668 4.39318C97.4448 4.43374 97.4642 4.45208 97.4849 4.47157C97.5122 4.49727 97.5415 4.52496 97.4808 4.60823C97.3436 4.48742 97.1558 4.49659 96.9791 4.50522C96.7453 4.51664 96.5309 4.52711 96.479 4.23396C96.4162 4.3415 96.4785 4.38971 96.5288 4.4286C96.5878 4.4743 96.6303 4.50713 96.4335 4.60823C96.384 4.30343 96.2675 4.35717 96.1202 4.42506C95.9963 4.48222 95.8506 4.5494 95.7049 4.42109C95.7444 4.2994 95.8267 4.25684 95.8812 4.22862C95.9525 4.19174 95.9765 4.17933 95.796 4.04682C95.6814 4.34113 95.4767 4.22813 95.2727 4.11545C95.1523 4.04901 95.0322 3.98269 94.9308 4.00004C94.9308 4.23143 94.722 4.23035 94.4549 4.22898C94.29 4.22813 94.1029 4.22716 93.9291 4.28074C93.9576 4.19289 93.6293 4.12337 93.2792 4.04923C93.07 4.00493 92.853 3.95897 92.6997 3.90647V3.85969C92.6254 4.16492 92.3391 4.19011 92.0632 4.21439C92.0007 4.21988 91.9389 4.22533 91.8801 4.23396C91.8801 4.00004 91.9711 3.90647 92.1077 3.81291H91.8345C91.7435 3.95326 91.6979 4.00004 91.4703 4.04682L91.5613 3.76612C91.4281 3.76612 91.2888 3.80991 91.1412 3.85632C90.8852 3.93681 90.6041 4.02518 90.2864 3.90647C90.2715 3.99789 90.305 4.10916 90.3396 4.22412C90.4112 4.46213 90.4875 4.71596 90.1498 4.84215C90.1498 4.8163 90.1482 4.78569 90.1465 4.75266C90.1392 4.60634 90.1294 4.41248 90.2408 4.37431C90.2261 4.37431 90.2019 4.38894 90.1744 4.40561C90.1166 4.44056 90.044 4.48445 90.0132 4.42109L90.2408 4.18717C90.1157 4.13574 90.0868 4.1974 90.056 4.26336C90.0307 4.31739 90.0041 4.37431 89.9221 4.37431C89.9221 4.2868 89.8922 4.25044 89.8651 4.2174C89.8342 4.17978 89.8068 4.14645 89.831 4.04682C89.8438 4.04682 89.8602 4.0542 89.8791 4.06274C89.9277 4.08461 89.9932 4.11412 90.0587 4.04682C89.8765 4.00004 89.6033 3.85969 89.5578 3.71934C89.5578 3.85969 89.5578 4.00004 89.4212 4.04682C89.2123 4.04682 89.1981 3.96992 89.181 3.87784C89.1683 3.80934 89.1541 3.73243 89.0569 3.67255C89.0203 3.72901 88.9616 3.74005 88.9015 3.75134C88.8122 3.76812 88.7199 3.78547 88.6927 3.95326C88.6164 3.95326 88.572 3.85476 88.5329 3.76778C88.5254 3.75105 88.5179 3.73442 88.5105 3.71934C88.4452 3.7697 88.3095 3.78994 88.1729 3.81032C87.9287 3.84675 87.6815 3.88362 87.8275 4.09361C87.4653 4.25309 87.0884 4.17094 86.7052 4.08741C86.4139 4.02392 86.119 3.95963 85.824 4.00004V3.90647C85.7012 3.93801 85.563 3.9536 85.4231 3.96937C85.148 4.00039 84.8668 4.0321 84.6857 4.18717C84.5946 4.18717 84.4125 4.00004 84.458 3.85969C84.4098 3.87619 84.3687 3.89269 84.3315 3.90765C84.1574 3.97753 84.067 4.01382 83.7294 3.85969C83.8977 3.7609 83.8629 3.7273 83.8529 3.71759L83.8508 3.71482C83.8508 3.71482 83.8554 3.71405 83.8682 3.71482C83.8914 3.71623 83.9426 3.71934 84.0482 3.71934C83.9557 3.69559 83.8809 3.66582 83.8139 3.63919C83.6172 3.56092 83.4888 3.50988 83.183 3.71934C83.3196 3.43864 82.9098 3.39185 82.7277 3.43864L83.0009 3.62577C82.8795 3.65696 82.758 3.64656 82.6366 3.63617C82.5759 3.63097 82.5152 3.62577 82.4545 3.62577L82.5456 3.2515C82.1868 3.05634 81.8573 3.19286 81.5481 3.32098C81.1903 3.46927 80.8596 3.6063 80.5421 3.20472C80.4302 3.31966 80.5272 3.36682 80.6332 3.41837C80.743 3.47173 80.8624 3.52978 80.7697 3.67255C80.5327 3.64212 80.2957 3.41365 80.134 3.25772C80.0471 3.17398 79.9819 3.11115 79.9501 3.11115C79.7228 2.99437 79.6089 3.12247 79.4896 3.25675C79.3699 3.39143 79.2447 3.53234 78.9939 3.43864C79.0394 3.57899 79.085 3.90647 78.7207 4.00004C78.4912 3.97057 78.3882 3.75542 78.4003 3.57684C78.4447 3.58999 78.4906 3.60607 78.5385 3.62577C78.487 3.60459 78.4401 3.5834 78.4016 3.56221C78.4069 3.51199 78.4214 3.46522 78.445 3.42705C78.4772 3.48511 78.5876 3.51801 78.7065 3.55348C78.8115 3.58479 78.9232 3.61812 78.9939 3.67255L78.8621 3.33405C78.8773 3.30189 78.8663 3.26076 78.8118 3.20472L78.8621 3.33405C78.8393 3.38243 78.7572 3.41053 78.6751 3.43864C78.6751 3.39185 78.6296 3.34507 78.5385 3.34507C78.4991 3.36129 78.4678 3.39016 78.445 3.42705C78.4323 3.40419 78.4317 3.37743 78.4475 3.34507C78.2361 3.41745 78.27 3.48983 78.4016 3.56221L78.4003 3.57684C78.2177 3.52265 78.0621 3.51804 77.9038 3.51336C77.7357 3.50838 77.5645 3.50332 77.3547 3.43864C77.4457 3.5322 77.4913 3.67255 77.4002 3.67255C77.0122 3.56626 76.9622 3.65619 76.9079 3.75372C76.8666 3.8279 76.8228 3.90647 76.6261 3.90647C76.5318 3.80958 76.5391 3.71269 76.5443 3.64239C76.5518 3.54298 76.5552 3.49677 76.2618 3.57899C75.9886 3.43864 76.2163 3.2515 76.3529 3.15793C76.0398 3.2866 75.7913 3.12775 75.5926 3.00073C75.5023 2.943 75.4223 2.89185 75.3512 2.87723L75.5788 2.78367C75.4422 2.83045 75.3512 2.83045 75.2146 2.78367L75.3056 3.06437C75.169 3.01758 75.078 2.9708 75.078 2.87723C75.0215 2.93522 75.0195 3.01717 75.0173 3.10657C75.0141 3.23356 75.0106 3.3756 74.8503 3.48542C74.7971 3.43078 74.7025 3.42577 74.6068 3.42071C74.4567 3.41278 74.3039 3.4047 74.3039 3.20472C74.5869 3.30164 74.5767 3.21032 74.5644 3.09974C74.5556 3.02006 74.5456 2.93038 74.6434 2.89395C74.6842 2.8999 74.7217 2.89651 74.7592 2.87723C74.7097 2.87723 74.672 2.88333 74.6434 2.89395C74.6001 2.88761 74.5531 2.87069 74.4987 2.85108C74.4802 2.84441 74.4609 2.83743 74.4405 2.83045C74.4405 2.73688 74.486 2.73688 74.486 2.73688C74.2476 2.54094 74.184 2.63992 74.099 2.77202C74.0217 2.89223 73.9267 3.03987 73.6664 3.01758C73.7575 2.83045 73.5753 2.64332 73.4843 2.6901C73.7119 2.73688 73.5298 3.01758 73.3021 3.11115C73.0995 2.99221 72.9889 3.04337 72.9001 3.08443C72.8492 3.10797 72.8055 3.1282 72.7557 3.11115L72.9379 3.20472C72.8626 3.35935 72.7252 3.35426 72.5513 3.34783C72.5147 3.34648 72.4765 3.34507 72.437 3.34507C72.437 3.29794 72.4626 3.27719 72.495 3.26687C72.5055 3.26547 72.5161 3.26314 72.5267 3.25977C72.532 3.25896 72.5373 3.25827 72.5426 3.25765L72.5586 3.2559C72.6039 3.25113 72.6399 3.24735 72.6191 3.20472C72.5875 3.23255 72.5568 3.25026 72.5267 3.25977C72.5159 3.26145 72.5051 3.26365 72.495 3.26687C72.3846 3.28156 72.2816 3.192 72.1723 3.09693C72.0251 2.96898 71.8665 2.83106 71.6629 2.92402C71.5946 2.85384 71.606 2.77197 71.6174 2.6901C71.6287 2.60823 71.6401 2.52636 71.5718 2.45618C71.3436 2.52653 71.2526 2.44407 71.1556 2.35611C71.0591 2.26858 70.9565 2.1756 70.7067 2.22226L70.7161 2.25125C70.7504 2.35613 70.7679 2.40989 70.7504 2.44715C70.732 2.48634 70.6748 2.50728 70.5574 2.55026L70.5564 2.55062C70.521 2.56357 70.4803 2.57851 70.4335 2.59653H71.162L70.6156 2.83045C70.7361 2.8552 70.8693 2.84066 70.9815 2.82841C71.0814 2.81751 71.1647 2.80842 71.2076 2.83045L71.1904 2.83922L71.1448 2.86235C71.0479 2.91137 71.0068 2.93214 70.9949 2.96386C70.9862 2.98718 70.9932 3.01643 71.0053 3.06717C71.0112 3.09178 71.0183 3.12144 71.0254 3.15793C70.906 2.93709 70.7365 2.97365 70.5628 3.0111C70.4054 3.04506 70.2446 3.07974 70.1147 2.92402L70.3879 2.26905C70.1565 2.0788 69.9015 2.10614 69.623 2.13601C69.3536 2.1649 69.0169 3.35692 68.7035 3.1959L68.8856 3.33625C68.8007 3.48171 68.6629 3.42818 68.5052 3.36689C68.4092 3.32961 68.3059 3.28947 68.2026 3.28947C68.2481 3.10233 68.1571 2.96198 68.066 2.82163C68.066 2.87264 67.9998 2.86804 67.909 2.86171C67.75 2.85064 67.5155 2.83431 67.4285 3.10233L67.1553 2.77485C66.8726 2.65384 66.6753 2.78323 66.4812 2.91043C66.3002 3.02911 66.1221 3.14588 65.8804 3.05555C65.9517 2.98229 65.9671 2.90902 65.9814 2.84137C66.0036 2.73623 66.023 2.64465 66.2446 2.58771L66.2082 2.57824C66.0444 2.53544 65.9228 2.50368 65.8804 2.6345C65.8404 2.57299 65.7306 2.60134 65.6082 2.63291C65.4514 2.67337 65.2741 2.71911 65.1973 2.58771C65.1752 2.61042 65.1558 2.63863 65.1358 2.66768C65.0734 2.75833 65.0055 2.85706 64.8331 2.82163V2.72807C64.8331 2.76137 64.7927 2.78281 64.7468 2.80717C64.6639 2.85126 64.5629 2.90488 64.6509 3.05555C64.4113 2.6616 63.9951 2.64344 63.5948 2.62598C63.2345 2.61027 62.8871 2.59511 62.693 2.30701C62.2831 2.3538 61.8278 2.3538 61.4635 2.3538C61.4809 2.33593 61.485 2.31806 61.4885 2.30279C61.4942 2.2781 61.4983 2.26023 61.5546 2.26023C61.3083 2.14522 61.2162 2.27902 61.1212 2.41697C61.0229 2.55958 60.9217 2.70662 60.6439 2.58771C60.4742 2.35526 60.6383 2.35742 60.7433 2.3588C60.8074 2.35964 60.8495 2.36019 60.7805 2.30701C60.7558 1.92617 60.5568 1.97247 60.3216 2.02717C60.1235 2.07325 59.8998 2.12529 59.7332 1.93274L59.8243 1.88596C59.6794 1.76193 59.4834 1.8352 59.2632 1.91746C59.0682 1.99033 58.8543 2.07027 58.6404 2.02631C58.6404 2.02631 58.686 1.97953 58.6404 1.93274C58.3217 2.26023 57.6842 2.3538 57.2289 2.40058C57.2813 2.29288 57.327 2.24717 57.3583 2.21587C57.4085 2.1656 57.4216 2.15253 57.3655 1.97953C57.2927 1.99822 57.2853 2.06922 57.2766 2.15371C57.2635 2.28062 57.2472 2.43797 57.0012 2.49415C56.9716 2.46378 56.9357 2.43342 56.8975 2.40115C56.7592 2.2843 56.5914 2.14259 56.5914 1.88596H56.9557C56.8418 1.65195 56.6745 1.71057 56.5206 1.7645C56.4283 1.79682 56.3409 1.82746 56.2726 1.79239L56.3182 1.65204C56.031 1.65204 55.8724 1.75113 55.7177 1.84783C55.5535 1.95046 55.3935 2.0504 55.0888 2.02631L55.1343 2.16666C54.9461 2.36002 54.8794 2.29115 54.8087 2.21811C54.7426 2.14976 54.6729 2.07776 54.4968 2.21345L54.4057 1.79239C54.3691 1.80745 54.323 1.82735 54.2698 1.85034C53.9923 1.97023 53.5202 2.17419 53.1763 2.21345C53.3292 2.02501 53.6051 1.89983 53.8664 1.78128C53.9944 1.72323 54.1188 1.66677 54.2236 1.60526C53.9959 1.60526 53.4495 1.60526 53.3129 1.79239C53.3238 1.7868 53.3354 1.78053 53.3474 1.774C53.436 1.7259 53.5515 1.66324 53.6317 1.74561C53.3585 2.0731 52.9942 2.21345 52.5388 2.16666C52.5874 1.74257 52.2605 1.70425 51.8964 1.66156C51.5777 1.6242 51.2305 1.58349 51.0817 1.27777C50.608 1.44001 50.1647 1.3522 49.6903 1.25821C49.3439 1.18959 48.9809 1.11768 48.5774 1.13742C48.7367 1.46491 48.6684 1.46491 48.566 1.46491C48.4635 1.46491 48.3269 1.46491 48.3497 1.79239C48.122 1.83918 48.031 1.79239 48.031 1.79239L47.3935 1.37134C47.3179 1.26787 47.3956 1.23591 47.4723 1.20429C47.5344 1.17873 47.596 1.15338 47.5756 1.09064C47.3188 1.06426 47.2937 0.978363 47.2635 0.874903C47.2402 0.794903 47.2137 0.704413 47.0747 0.622803C47.1203 0.856723 46.8926 0.950293 46.6194 0.856723L46.9837 1.18421C46.6422 1.34795 46.5056 1.2076 46.369 1.06725C46.2324 0.926903 46.0958 0.786553 45.7543 0.950293L45.9819 0.763153C45.8808 0.789123 45.7376 0.797073 45.5767 0.806013C45.1577 0.829273 44.6185 0.859203 44.3882 1.23099C44.3833 1.22095 44.3779 1.21037 44.3723 1.19943C44.3258 1.10838 44.2663 0.992053 44.3882 0.950293C44.0184 0.908073 43.6115 1.00871 43.2178 1.10611C42.7388 1.22458 42.2792 1.33826 41.9294 1.18421L42.1115 0.997073C42.0687 1.01175 42.0258 1.04484 41.9816 1.07901C41.8847 1.15378 41.7812 1.23375 41.6562 1.13742C41.6562 1.12326 41.6604 1.1048 41.6649 1.08466C41.6754 1.03827 41.6879 0.982913 41.6562 0.950293C41.6409 0.958153 41.6192 0.971283 41.5928 0.987263C41.4619 1.06641 41.2158 1.21528 41.0642 1.13742L41.2008 0.950293C40.696 0.835023 40.3466 1.03927 39.9931 1.24595C39.7727 1.37479 39.5507 1.50458 39.2884 1.55848C39.2884 1.09064 38.6054 0.950293 38.2867 0.903503V0.856723C37.6098 0.856723 37.0926 1.11459 36.5575 1.38142C36.3367 1.49153 36.1128 1.60316 35.8733 1.69883C35.5175 1.4457 34.9148 1.53074 34.2927 1.6185C33.8801 1.67672 33.459 1.73614 33.0958 1.69883C33.2324 1.74561 33.1413 2.0731 33.0047 2.11988C32.916 2.10165 32.8273 2.16867 32.7466 2.22958C32.6203 2.32498 32.5139 2.40541 32.4583 2.11988H32.5493C32.373 1.83004 32.0875 1.90494 31.8196 1.97521C31.7416 1.99568 31.665 2.01576 31.5931 2.02631L31.6842 2.58771C31.141 2.29655 30.6101 2.5465 30.1359 2.76976C29.6958 2.97697 29.3045 3.16117 28.9977 2.86842C28.9294 2.96198 28.8269 3.02046 28.7245 3.07894C28.622 3.13742 28.5196 3.1959 28.4513 3.28947L28.4057 3.00877C27.8593 3.05555 27.5861 3.10233 26.9486 3.33625L27.0397 3.10233C26.8557 3.14959 26.7879 3.38776 26.7189 3.63004C26.6513 3.8675 26.5825 4.10889 26.4022 4.17836L26.2201 3.75731C25.9923 3.82417 25.7471 3.83131 25.5011 3.83847C25.0585 3.85136 24.6133 3.86432 24.2621 4.22514C24.2621 4.17836 24.2621 4.03801 24.3532 3.99122C24.292 4.0002 24.209 4.00401 24.1161 4.00828C23.7335 4.02584 23.2281 3.33107 23.3427 3.75731C23.2357 3.45743 22.7313 3.39001 22.4127 3.62581L22.3494 3.67255V3.39185C22.31 3.46473 22.2774 3.52919 22.2483 3.5867C22.1095 3.86146 22.0508 3.97755 21.7119 4.09361C21.6269 4.09361 21.5816 3.88978 21.687 3.90071C21.6951 3.90236 21.7034 3.90427 21.7119 3.90647C21.7028 3.90336 21.6946 3.90149 21.687 3.90071C21.5287 3.86826 21.4728 3.94142 21.4149 4.01733C21.351 4.10116 21.2844 4.18834 21.0744 4.14039L21.211 3.95326C20.9231 3.99024 20.8912 4.05646 20.823 4.19813C20.805 4.23564 20.7843 4.27857 20.7557 4.32753C20.5736 4.46788 20.0727 4.32753 19.9816 4.09361C19.9361 4.28074 19.7995 4.51466 19.5718 4.46788C19.5263 4.37431 19.6174 4.28074 19.6174 4.28074C19.3328 4.23576 19.1324 4.34217 18.9504 4.4388C18.7539 4.54316 18.5788 4.63611 18.3424 4.51466C18.3424 4.42109 18.2969 4.37431 18.2513 4.32753C18.319 4.32057 18.3846 4.31362 18.4474 4.30698C18.8065 4.26894 19.0709 4.24094 19.0709 4.28074C19.0546 4.17978 18.9969 4.11513 18.9426 4.05414C18.8458 3.94556 18.7594 3.84859 18.9343 3.57899C18.8863 3.6201 18.8327 3.66989 18.7749 3.72352C18.5039 3.97502 18.1418 4.31108 17.8415 4.23396C17.8415 4.21057 17.8301 4.19887 17.8188 4.18717C17.8074 4.17548 17.796 4.16378 17.796 4.14039L17.8415 4.09361C17.7505 4.09361 17.7049 4.09361 17.6138 4.14039C17.4772 4.09361 17.4317 4.09361 17.2951 4.09361C17.261 3.91817 17.0219 3.95326 16.8277 3.98177C16.7629 3.99127 16.7032 4.00004 16.6576 4.00004C16.6763 4.11509 16.6414 4.18298 16.6126 4.23916C16.5719 4.31838 16.5431 4.37428 16.6935 4.50627C16.6885 4.51125 16.6909 4.51466 16.7032 4.51466L16.6935 4.50627C16.7068 4.4928 16.7733 4.46788 16.8398 4.46788C16.859 4.46788 16.8701 4.46788 16.88 4.46435C16.8934 4.45953 16.9045 4.44812 16.9308 4.42109V4.46786H16.8858C16.8858 4.46786 16.8402 4.46786 16.8402 4.51464C16.8665 4.54167 16.8776 4.55308 16.8911 4.5579C16.9009 4.56142 16.9121 4.56142 16.9313 4.56142C16.9313 4.53803 16.9427 4.52634 16.9541 4.51464C16.9654 4.50294 16.9768 4.49125 16.9768 4.46786H16.9357C16.9975 4.46736 17.0594 4.45752 17.1256 4.447C17.204 4.43453 17.2886 4.42109 17.3862 4.42109C17.2496 4.60823 17.113 4.74858 16.8853 4.56144C16.832 4.67106 16.7786 4.79674 16.7344 4.90085C16.7032 4.97447 16.6765 5.03731 16.6576 5.07606C16.5177 4.88439 16.3061 4.74179 16.1208 4.61686C15.9442 4.49785 15.7914 4.39486 15.747 4.28074C15.5803 4.35208 15.3925 4.39732 15.2029 4.44298C14.7707 4.54705 14.3293 4.65336 14.1077 5.07606C14.0137 5.14049 13.9628 5.04965 13.9105 4.95627C13.8868 4.91404 13.8629 4.87128 13.8345 4.84215C13.8617 4.82818 13.8889 4.81839 13.9148 4.80903C13.9759 4.78703 14.0302 4.76744 14.0622 4.70179C13.9499 4.76774 13.798 4.79882 13.6463 4.82986C13.3677 4.88689 13.0899 4.94373 13.0604 5.21641C12.8612 5.1482 12.9095 5.05787 12.9437 4.99379C12.9799 4.92604 13.0004 4.88762 12.6962 4.93571L12.7872 4.79536C12.2489 4.52986 11.8226 4.75614 11.3927 4.98431C10.932 5.22881 10.4673 5.47547 9.85621 5.12158C9.83625 5.10641 9.81151 5.09124 9.78198 5.07606C9.80696 5.09223 9.8317 5.10739 9.85621 5.12158C9.89779 5.15319 9.91858 5.1848 9.91858 5.21641C9.29778 5.07239 8.66818 5.12744 8.03752 5.18258C7.23418 5.25282 6.42913 5.32321 5.63837 4.9825C5.33765 4.8795 5.23308 5.00324 5.10876 5.15036C5.06366 5.20373 5.01596 5.26017 4.95536 5.30998L4.86429 4.9825L4.45448 5.35677C4.21991 5.4371 4.01891 5.29327 3.80464 5.13994C3.51979 4.93611 3.21149 4.7155 2.76972 4.9825L2.86079 5.21641C2.76939 5.20076 2.64231 5.20606 2.51708 5.21127C2.26796 5.22165 2.0261 5.23172 2.08671 5.07606C2.07509 5.08799 2.06348 5.10905 2.05112 5.13147C2.01499 5.19699 1.97242 5.27419 1.90457 5.16963V4.9825L1.22156 5.21641C0.994022 5.15266 1.0014 5.01166 1.00893 4.86799C1.01796 4.6954 1.0272 4.51894 0.629613 4.46788C0.356408 4.51466 -0.190002 4.88893 -0.0989338 5.02928C-0.00786545 5.02928 0.174271 5.16963 0.174271 5.30998L-0.0989338 5.40355C-0.11148 5.468 -0.126619 5.53334 -0.14185 5.59908C-0.237177 6.01052 -0.336122 6.43757 0.174271 6.76027L0.629613 6.47957L0.766215 6.71349H0.401942C0.555587 6.91082 0.67683 6.80852 0.820337 6.68743C0.846942 6.66499 0.874335 6.64187 0.902818 6.61992C0.948352 6.76027 0.993886 6.85384 1.08495 6.90062L1.5403 6.47957C1.55654 6.54632 1.53223 6.61306 1.50869 6.67769C1.46624 6.79425 1.42631 6.9039 1.63136 6.99419C1.73501 6.909 1.70654 6.81411 1.67913 6.72277C1.64634 6.61347 1.61506 6.50924 1.8135 6.43279C1.86893 6.50398 1.90328 6.57084 1.93065 6.62413C1.99323 6.74595 2.01939 6.79689 2.17777 6.66671C2.21537 6.7826 2.15983 6.8347 2.08806 6.90201C2.07291 6.91622 2.05704 6.9311 2.04117 6.94741C2.13407 6.89014 2.24971 6.87182 2.36025 6.8543C2.52062 6.82889 2.67027 6.80518 2.72418 6.66671C2.80277 6.78782 2.94918 6.79571 3.08659 6.80312C3.26764 6.81287 3.43308 6.82178 3.4072 7.08776C3.49826 6.99419 3.817 6.71349 3.99914 6.71349C3.81887 6.99132 3.99545 7.00562 4.20881 7.0229C4.42656 7.04053 4.68262 7.06126 4.63662 7.36846C4.7933 7.10016 5.09974 7.07805 5.41853 7.05505C5.6556 7.03794 5.89951 7.02035 6.09371 6.90062C6.08233 6.91232 6.07094 6.92694 6.05956 6.94156C6.03968 6.9671 6.01979 6.99264 5.99991 7.00259C5.98615 6.99953 5.9719 6.99672 5.95711 6.99419C5.97137 7.00885 5.98564 7.00973 5.99991 7.00259C6.17518 7.04155 6.26969 7.12141 6.35811 7.19611C6.39096 7.22387 6.42298 7.25092 6.45798 7.27489C6.48919 6.9863 6.69154 6.85155 6.88907 6.72001C6.97973 6.65964 7.06938 6.59994 7.141 6.52636C7.31939 6.76202 7.24104 6.88044 7.15342 7.01285C7.08449 7.11702 7.00983 7.22985 7.04993 7.41525C7.04993 7.25537 7.19101 7.17354 7.31953 7.099C7.45426 7.02086 7.57518 6.95072 7.50527 6.80706C7.56195 6.85559 7.60492 6.89003 7.63863 6.91705C7.68756 6.95627 7.71702 6.97988 7.74067 7.00832C7.77644 7.05131 7.79894 7.10535 7.85546 7.24109L7.86954 7.27489C7.89477 6.9898 7.96192 6.99187 8.0555 6.99475C8.13085 6.99706 8.22334 6.99991 8.32488 6.85384C8.48425 6.95618 8.52161 7.05852 8.54752 7.12952C8.58084 7.2208 8.59524 7.26027 8.82576 7.18133C9.0079 7.27489 8.64362 7.46203 8.64362 7.46203ZM18.9343 5.91817C18.8433 5.91817 18.7067 5.91817 18.5701 5.96495C18.5245 5.87139 18.5701 5.77782 18.6156 5.73103C18.6156 5.81308 18.7557 5.85916 18.8822 5.9008C18.9 5.90665 18.9175 5.91241 18.9343 5.91817ZM17.0674 4.04682C17.204 4.00004 17.2496 4.04682 17.2496 4.09361C17.2307 4.09361 17.204 4.10163 17.1728 4.11104C17.1299 4.12395 17.0783 4.13947 17.0265 4.14035C17.0318 4.11007 17.0431 4.07179 17.0674 4.04682Z" fill="#202020"/>
<path d="M48.3487 0.675529C48.474 0.804329 48.3789 0.883879 48.2832 0.963889C48.1704 1.05826 48.0567 1.15328 48.3031 1.3305C48.2875 1.28217 48.3312 1.21163 48.3804 1.13228C48.474 0.98123 48.5875 0.798219 48.3487 0.675529Z" fill="#202020"/>
<path d="M48.3046 1.28371L48.351 1.33139C48.351 1.33139 48.3046 1.33139 48.3046 1.28371Z" fill="#202020"/>
<path d="M68.2497 2.26618C68.2497 2.31296 68.2497 2.35975 68.2953 2.40653C68.2953 2.40653 68.2953 2.35975 68.2497 2.26618Z" fill="#202020"/>
<path d="M72.9855 2.60254L72.8944 2.55576C72.8944 2.60254 72.94 2.60254 72.9855 2.60254Z" fill="#202020"/>
<path d="M65.4237 2.12586C65.5147 2.07908 65.5602 2.12586 65.6058 2.17264C65.5147 2.07908 65.4692 2.12586 65.4237 2.17264V2.12586Z" fill="#202020"/>
<path d="M62.9226 1.79831C62.9226 1.84509 62.9681 1.84509 62.9681 1.84509H63.0592L62.9226 1.79831Z" fill="#202020"/>
<path d="M11.6479 6.2048L11.7845 6.4855C11.4932 6.51272 11.51 6.49244 11.566 6.42469C11.6063 6.37595 11.667 6.30266 11.6479 6.2048Z" fill="#202020"/>
<path d="M100.897 5.17561C100.897 5.2441 100.872 5.26246 100.841 5.28573C100.83 5.29425 100.818 5.30342 100.806 5.31596H100.897C100.942 5.26918 100.942 5.22239 100.897 5.17561Z" fill="#202020"/>
<path d="M65.1516 4.465L64.7418 4.37143C64.8329 4.41821 65.015 4.465 65.1516 4.465Z" fill="#202020"/>
<path d="M30.8634 4.65215L30.8178 4.67554C30.8292 4.66385 30.8406 4.65215 30.8634 4.65215Z" fill="#202020"/>
<path d="M30.8178 4.67554L30.7723 4.69894C30.7951 4.69894 30.8064 4.68724 30.8178 4.67554Z" fill="#202020"/>
<path d="M63.3319 3.99713C63.423 4.04392 63.5141 4.13748 63.5596 4.23105L63.2864 4.0907C63.2864 4.04392 63.3319 3.99713 63.3319 3.99713Z" fill="#202020"/>
<path d="M30.0473 5.02645L30.0018 4.93288L29.9563 5.02645H30.0473Z" fill="#202020"/>
<path d="M94.4751 4.98845L94.7483 5.08202C94.6962 5.06415 94.6506 5.0531 94.6117 5.04367C94.5488 5.02841 94.5033 5.01736 94.4751 4.98845Z" fill="#202020"/>
<path d="M95.9306 5.17566C95.9306 5.15226 95.9419 5.12887 95.9533 5.10548L95.9306 5.17566Z" fill="#202020"/>
<path d="M95.9761 5.0353L95.9533 5.10547C95.9647 5.08208 95.9761 5.05869 95.9761 5.0353Z" fill="#202020"/>
<path d="M72.7553 4.56742H72.7097C72.5731 4.61296 72.6642 4.61296 72.7553 4.56742Z" fill="#202020"/>
<path d="M79.6107 4.63759C79.6449 4.6142 79.679 4.59081 79.7245 4.56742C79.7245 4.70777 79.6335 4.70777 79.4969 4.70777C79.5424 4.68438 79.5766 4.66099 79.6107 4.63759Z" fill="#202020"/>
<path d="M79.1754 4.66093C79.312 4.70772 79.4031 4.70772 79.4941 4.66093C79.4653 4.66093 79.4365 4.65624 79.4062 4.65132C79.3409 4.64069 79.2688 4.62896 79.1754 4.66093Z" fill="#202020"/>
<path d="M102.306 5.40953H102.215L102.306 5.36275V5.40953Z" fill="#202020"/>
<path d="M102.261 5.36269L102.352 5.3159C102.333 5.3159 102.322 5.3159 102.312 5.31943C102.298 5.32425 102.287 5.33566 102.261 5.36269Z" fill="#202020"/>
<path d="M102.394 5.34154L102.535 5.26917C102.508 5.32483 102.465 5.33083 102.425 5.3364C102.414 5.33785 102.404 5.33927 102.394 5.34154Z" fill="#202020"/>
<path d="M102.353 5.36275L102.394 5.34155C102.378 5.34521 102.364 5.35105 102.353 5.36275Z" fill="#202020"/>
<path d="M100.258 5.22244L100.212 5.31601C100.258 5.31601 100.258 5.26923 100.258 5.22244Z" fill="#202020"/>
<path d="M99.8558 5.33982C99.8015 5.31031 99.7518 5.28328 99.7105 5.26912C99.7842 5.16803 99.9112 5.24441 100.027 5.3139C100.125 5.37306 100.215 5.42722 100.257 5.36268V5.45625C100.13 5.48887 99.9808 5.40778 99.8558 5.33982Z" fill="#202020"/>
<path d="M95.8415 3.50205C95.9054 3.56288 95.9915 3.64493 95.795 3.67858C95.5674 3.58501 95.6129 3.53823 95.795 3.44466C95.795 3.45779 95.8166 3.47831 95.8415 3.50205Z" fill="#202020"/>
<path d="M84.8214 3.53821L84.827 3.50372C84.8262 3.51466 84.8244 3.52614 84.8214 3.53821Z" fill="#202020"/>
<path d="M84.827 3.50371C84.832 3.44017 84.8053 3.39506 84.7851 3.361C84.7548 3.30998 84.7393 3.28374 84.867 3.2575L84.827 3.50371Z" fill="#202020"/>
<path d="M81.5434 2.92999L81.6345 2.8832L81.2702 2.97677L81.5434 2.92999Z" fill="#202020"/>
<path d="M63.4207 1.61126L63.4662 1.93874C63.6028 1.89196 63.6483 1.51769 63.4207 1.61126Z" fill="#202020"/>
<path d="M55.4083 1.37731C55.3173 1.19018 55.0896 1.09661 54.953 1.23696C55.0562 1.25818 55.1407 1.29862 55.2108 1.33214C55.2952 1.37255 55.3586 1.40289 55.4083 1.37731Z" fill="#202020"/>
<path d="M31.5471 1.70485L31.4105 1.8452L31.2739 1.89198L31.5471 1.70485Z" fill="#202020"/>
</svg>
